<svg xmlns="http://www.w3.org/2000/svg" viewBox="0 0 128 128" width="128" height="128">
  <g fill="#DC5B2C">
    <path d="M64 16 C 53 30, 53 52, 64 61 C 75 52, 75 30, 64 16 Z"/>
    <path d="M64 16 C 53 30, 53 52, 64 61 C 75 52, 75 30, 64 16 Z" transform="rotate(72 64 64)"/>
    <path d="M64 16 C 53 30, 53 52, 64 61 C 75 52, 75 30, 64 16 Z" transform="rotate(144 64 64)"/>
    <path d="M64 16 C 53 30, 53 52, 64 61 C 75 52, 75 30, 64 16 Z" transform="rotate(216 64 64)"/>
    <path d="M64 16 C 53 30, 53 52, 64 61 C 75 52, 75 30, 64 16 Z" transform="rotate(288 64 64)"/>
  </g>
  <circle cx="64" cy="64" r="8" fill="#EFC15C"/>
</svg>
